<svg width="34" height="34" viewBox="0 0 34 34" fill="none" xmlns="http://www.w3.org/2000/svg">
<circle cx="17" cy="17" r="16" stroke="#170F49" stroke-width="2"/>
<path d="M18.8 16.1V20.6M9.8 11.6H24.2L22.778 24.398C22.7293 24.8384 22.5198 25.2454 22.1896 25.541C21.8595 25.8366 21.4319 26 20.9888 26H13.0112C12.5681 26 12.1405 25.8366 11.8104 25.541C11.4802 25.2454 11.2707 24.8384 11.222 24.398L9.8 11.6ZM12.8105 9.0323C12.9561 8.72357 13.1864 8.4626 13.4747 8.27982C13.763 8.09704 14.0973 8 14.4386 8H19.5614C19.9029 7.99983 20.2374 8.09679 20.5258 8.27958C20.8143 8.46237 21.0448 8.72343 21.1904 9.0323L22.4 11.6H11.6L12.8105 9.0323V9.0323ZM8 11.6H26H8ZM15.2 16.1V20.6V16.1Z" stroke="#170F49" stroke-width="2" stroke-linecap="round" stroke-linejoin="round"/>
</svg>
