<svg width="34" height="34" viewBox="0 0 34 34" fill="none" xmlns="http://www.w3.org/2000/svg">
<path fill-rule="evenodd" clip-rule="evenodd" d="M23.525 17.6003C23.5255 19.1467 22.9951 20.6463 22.0224 21.8485C21.0497 23.0506 19.6937 23.8823 18.1813 24.2045C16.6688 24.5266 15.0916 24.3197 13.7134 23.6183C12.3353 22.917 11.2397 21.7636 10.61 20.3513L8.52349 21.1988C9.35063 23.094 10.805 24.6466 12.6422 25.5956C14.4794 26.5447 16.5873 26.8322 18.6116 26.41C20.6358 25.9878 22.453 24.8814 23.7575 23.2771C25.0621 21.6727 25.7745 19.6681 25.775 17.6003C25.7751 15.7219 25.1874 13.8905 24.0944 12.3629C23.0014 10.8352 21.4578 9.68785 19.6799 9.08156C17.9021 8.47527 15.9791 8.44044 14.1804 8.98196C12.3818 9.52348 10.7976 10.6142 9.64999 12.1013V9.35027H7.39999V15.3503L8.52499 16.4753H13.775V14.2253H10.928C11.6707 12.9378 12.8175 11.9314 14.1906 11.3623C15.5636 10.7932 17.0862 10.6933 18.5219 11.0779C19.9575 11.4626 21.2261 12.3103 22.1308 13.4897C23.0354 14.669 23.5255 16.1139 23.525 17.6003V17.6003Z" fill="#170F49"/>
<circle cx="17" cy="17" r="16" stroke="#170F49" stroke-width="2"/>
</svg>
