<svg width="732" height="951" viewBox="0 0 732 951" fill="none" xmlns="http://www.w3.org/2000/svg">
<path d="M732 0H0V951H732V0Z" fill="#CAD5E5"/>
<g opacity="0.2">
<path d="M368.186 556.189L460.188 439.799L635.331 603.854" stroke="black" stroke-width="12" stroke-linecap="round" stroke-linejoin="round"/>
<path d="M183.315 600.225L307.958 439.799L412.546 500.074" stroke="black" stroke-width="12" stroke-linecap="round" stroke-linejoin="round"/>
<path d="M357.806 468.524C357.806 468.524 398.017 438.583 437.481 468.524" stroke="black" stroke-width="12" stroke-linecap="round" stroke-linejoin="round"/>
<path d="M346.653 447.756L360.12 458.867" stroke="black" stroke-width="7" stroke-linecap="round" stroke-linejoin="round"/>
<path d="M361.044 449.344L366.852 455.221" stroke="black" stroke-width="7" stroke-linecap="round" stroke-linejoin="round"/>
<path d="M365.928 439.799L375.958 452.28" stroke="black" stroke-width="7" stroke-linecap="round" stroke-linejoin="round"/>
<path d="M379.127 439.799L382.957 449.344" stroke="black" stroke-width="7" stroke-linecap="round" stroke-linejoin="round"/>
<path d="M389.425 434.008L390.932 449.344" stroke="black" stroke-width="7" stroke-linecap="round" stroke-linejoin="round"/>
<path d="M399.722 436.65L398.531 449.344" stroke="black" stroke-width="7" stroke-linecap="round" stroke-linejoin="round"/>
<path d="M411.337 432.555L408.565 449.344" stroke="black" stroke-width="7" stroke-linecap="round" stroke-linejoin="round"/>
<path d="M421.104 437.576L416.484 451.065" stroke="black" stroke-width="7" stroke-linecap="round" stroke-linejoin="round"/>
<path d="M433.249 436.123L425.991 453.314" stroke="black" stroke-width="7" stroke-linecap="round" stroke-linejoin="round"/>
<path d="M441.172 444.323L434.173 457.41" stroke="black" stroke-width="7" stroke-linecap="round" stroke-linejoin="round"/>
<path d="M519.12 432.555H621.294C621.294 432.555 622.68 415.298 604.662 412.124C604.662 412.124 601.295 389.414 581.99 389.414C562.686 389.414 562.483 410.982 562.483 410.982C562.483 410.982 542.88 404.984 537.734 422.227C537.734 422.24 520.109 413.114 519.12 432.555Z" stroke="black" stroke-width="7" stroke-linecap="round" stroke-linejoin="round"/>
<path d="M157.952 476.054H236.103C236.103 476.054 235.576 454.832 215.576 467.326C215.576 467.326 217.735 441.347 189.636 441.347C161.536 441.347 169.904 465.609 169.904 465.609C169.904 465.609 157.041 463.758 157.952 476.054Z" stroke="black" stroke-width="7" stroke-linecap="round" stroke-linejoin="round"/>
<path d="M303.178 377.283L320.657 383.234L322.565 363.002" stroke="black" stroke-width="10" stroke-linecap="round" stroke-linejoin="round"/>
<path d="M438.603 342.485L450.145 346.412L451.405 333.052" stroke="black" stroke-width="10" stroke-linecap="round" stroke-linejoin="round"/>
<path d="M390.331 396.135L400.297 399.53L401.385 387.991" stroke="black" stroke-width="10" stroke-linecap="round" stroke-linejoin="round"/>
</g>
<path d="M244.155 612.486H240.205C238.556 612.481 236.959 613.066 235.701 614.134C234.444 615.203 233.608 616.685 233.344 618.316C231.634 629.037 231.634 639.962 233.344 650.683C233.61 652.312 234.446 653.794 235.703 654.861C236.961 655.929 238.557 656.513 240.205 656.509H250.135" fill="#D6CAE5"/>
<path d="M244.155 612.486H240.205C238.556 612.481 236.959 613.066 235.701 614.134C234.444 615.203 233.608 616.685 233.344 618.316C231.634 629.037 231.634 639.962 233.344 650.683C233.61 652.312 234.446 653.794 235.703 654.861C236.961 655.929 238.557 656.513 240.205 656.509H250.135" stroke="#100C30" stroke-width="7" stroke-linecap="round" stroke-linejoin="round"/>
<path d="M476.604 650.047C474.16 657.72 471.713 665.391 469.263 673.06C461.492 674.213 453.405 675.279 445.002 676.256C443.852 669.8 440.344 664.003 435.162 659.994C429.979 655.986 423.493 654.052 416.966 654.57C410.439 655.088 404.337 658.021 399.85 662.797C395.362 667.573 392.81 673.851 392.689 680.408C382.257 680.866 371.498 681.104 360.41 681.122C348.096 681.122 336.18 680.833 324.663 680.257C324.505 673.745 321.949 667.521 317.487 662.782C313.026 658.043 306.973 655.123 300.492 654.583C294.011 654.043 287.559 655.922 282.378 659.858C277.196 663.794 273.649 669.509 272.419 675.906C265.044 675.024 257.919 674.069 251.042 673.043L244.876 636.779C242.001 619.877 240.844 602.726 241.422 585.59C241.612 580.063 241.799 574.534 241.984 569.004C242.308 559.703 245.972 550.832 252.303 544.02C258.633 537.208 267.205 532.912 276.443 531.923C307.389 528.57 338.509 527.109 369.632 527.55C395.815 527.922 420.305 529.617 442.865 532.121C451.991 533.121 460.57 536.981 467.378 543.15C474.187 549.319 478.878 557.482 480.783 566.478C486.643 594.227 485.203 623.024 476.604 650.047V650.047Z" fill="#6A61D8" stroke="#100C30" stroke-width="7" stroke-linecap="round" stroke-linejoin="round"/>
<path d="M242.329 616.988H483.469" stroke="#100C30" stroke-width="7" stroke-linecap="round" stroke-linejoin="round"/>
<path d="M298.325 701.245C310.659 701.245 320.657 691.231 320.657 678.877C320.657 666.523 310.659 656.509 298.325 656.509C285.992 656.509 275.994 666.523 275.994 678.877C275.994 691.231 285.992 701.245 298.325 701.245Z" fill="#3F3F44" stroke="#100C30" stroke-width="7" stroke-linecap="round" stroke-linejoin="round"/>
<path d="M316.283 555.614H275.355C271.886 555.614 269.073 558.431 269.073 561.907V588.055C269.073 591.53 271.886 594.348 275.355 594.348H316.283C319.752 594.348 322.565 591.53 322.565 588.055V561.907C322.565 558.431 319.752 555.614 316.283 555.614Z" fill="#F5E7A8"/>
<path d="M316.296 555.614H275.342C271.88 555.614 269.073 558.426 269.073 561.894V588.068C269.073 591.536 271.88 594.348 275.342 594.348H316.296C319.758 594.348 322.565 591.536 322.565 588.068V561.894C322.565 558.426 319.758 555.614 316.296 555.614Z" stroke="#100C30" stroke-width="7" stroke-linecap="round" stroke-linejoin="round"/>
<path d="M258.084 558.905C257.704 551.077 264.259 544.633 272.052 544.694C285.169 544.344 298.364 544.153 311.477 544.036C334.145 543.889 360.125 543.976 382.719 544.469C385.595 544.586 390.115 544.542 392.969 544.811C399.183 545.589 404.347 550.865 404.804 557.111C404.867 557.961 404.867 558.816 404.804 559.667C404.865 552.877 399.623 546.74 392.792 546.285C391.415 546.203 389.209 546.307 387.788 546.333C370.163 546.791 349.568 546.938 331.831 546.973C312.893 546.973 289.759 546.683 270.826 546.238C264.09 546.281 258.305 552.128 258.089 558.901L258.084 558.905Z" fill="#100C30"/>
<path d="M347.685 556.6H381.627C382.772 556.6 383.905 556.826 384.963 557.265C386.021 557.704 386.982 558.347 387.791 559.158C388.601 559.969 389.243 560.931 389.681 561.991C390.119 563.05 390.344 564.185 390.344 565.332V680.507H338.964V565.332C338.964 564.185 339.189 563.049 339.628 561.989C340.066 560.93 340.708 559.967 341.518 559.156C342.328 558.345 343.29 557.702 344.348 557.264C345.406 556.825 346.54 556.6 347.685 556.6V556.6Z" fill="#6A61D8" stroke="#100C30" stroke-width="7" stroke-linecap="round" stroke-linejoin="round"/>
<path d="M348.16 610.35H357.806" stroke="#100C30" stroke-width="4" stroke-linecap="round" stroke-linejoin="round"/>
<path d="M390.331 577.333H395.858" stroke="#100C30" stroke-width="4" stroke-linecap="round" stroke-linejoin="round"/>
<path d="M390.331 649.256H395.858" stroke="#100C30" stroke-width="4" stroke-linecap="round" stroke-linejoin="round"/>
<path d="M348.16 613.58C349.942 613.58 351.386 612.134 351.386 610.35C351.386 608.565 349.942 607.119 348.16 607.119C346.379 607.119 344.935 608.565 344.935 610.35C344.935 612.134 346.379 613.58 348.16 613.58Z" fill="#100C30"/>
<path d="M238.586 630.867H233.612C232.791 630.867 232.126 631.533 232.126 632.354V633.224C232.126 634.045 232.791 634.712 233.612 634.712H238.586C239.406 634.712 240.071 634.045 240.071 633.224V632.354C240.071 631.533 239.406 630.867 238.586 630.867Z" fill="#100C30"/>
<path d="M375.388 566.487H353.907C351.236 566.487 349.071 568.655 349.071 571.331V592.847C349.071 595.522 351.236 597.691 353.907 597.691H375.388C378.059 597.691 380.224 595.522 380.224 592.847V571.331C380.224 568.655 378.059 566.487 375.388 566.487Z" fill="#F5E7A8"/>
<path d="M375.388 566.487H353.907C351.236 566.487 349.071 568.655 349.071 571.331V592.847C349.071 595.522 351.236 597.691 353.907 597.691H375.388C378.059 597.691 380.224 595.522 380.224 592.847V571.331C380.224 568.655 378.059 566.487 375.388 566.487Z" stroke="#100C30" stroke-width="7" stroke-linecap="round" stroke-linejoin="round"/>
<path opacity="0.2" d="M273.201 592.094V564.363C273.201 563.119 273.694 561.925 274.573 561.045C275.451 560.165 276.643 559.671 277.885 559.671H320.134L316.248 555.779H272.523L268.995 559.308V589.582L273.201 592.094Z" fill="black"/>
<path d="M283.636 556.6V594.226" stroke="#100C30" stroke-width="7" stroke-linecap="round" stroke-linejoin="round"/>
<path d="M307.272 556.6V594.226" stroke="#100C30" stroke-width="7" stroke-linecap="round" stroke-linejoin="round"/>
<path d="M283.636 578.359H307.272" stroke="#100C30" stroke-width="7" stroke-linecap="round" stroke-linejoin="round"/>
<path opacity="0.2" d="M352.983 595.93V574.479C352.983 573.38 353.419 572.326 354.195 571.549C354.971 570.772 356.023 570.336 357.12 570.336H377.551L378.566 567.607L363.493 567.097L351.403 567.879L349.089 571.188V592.518L352.983 595.93Z" fill="black"/>
<path d="M298.325 688.526C303.645 688.526 307.958 684.206 307.958 678.877C307.958 673.548 303.645 669.228 298.325 669.228C293.005 669.228 288.693 673.548 288.693 678.877C288.693 684.206 293.005 688.526 298.325 688.526Z" fill="#59595B" stroke="#100C30" stroke-width="5" stroke-linecap="round" stroke-linejoin="round"/>
<path d="M298.325 683.319C300.774 683.319 302.76 681.33 302.76 678.877C302.76 676.424 300.774 674.435 298.325 674.435C295.876 674.435 293.891 676.424 293.891 678.877C293.891 681.33 295.876 683.319 298.325 683.319Z" fill="#D8D8D8" stroke="#100C30" stroke-width="3" stroke-linecap="round" stroke-linejoin="round"/>
<path d="M419.113 701.245C431.447 701.245 441.445 691.231 441.445 678.877C441.445 666.523 431.447 656.509 419.113 656.509C406.78 656.509 396.782 666.523 396.782 678.877C396.782 691.231 406.78 701.245 419.113 701.245Z" fill="#3F3F44" stroke="#100C30" stroke-width="7" stroke-linecap="round" stroke-linejoin="round"/>
<path d="M419.113 688.526C424.433 688.526 428.746 684.206 428.746 678.877C428.746 673.548 424.433 669.228 419.113 669.228C413.793 669.228 409.48 673.548 409.48 678.877C409.48 684.206 413.793 688.526 419.113 688.526Z" fill="#59595B" stroke="#100C30" stroke-width="5" stroke-linecap="round" stroke-linejoin="round"/>
<path d="M419.113 683.319C421.562 683.319 423.548 681.33 423.548 678.877C423.548 676.424 421.562 674.435 419.113 674.435C416.664 674.435 414.679 676.424 414.679 678.877C414.679 681.33 416.664 683.319 419.113 683.319Z" fill="#D8D8D8" stroke="#100C30" stroke-width="3" stroke-linecap="round" stroke-linejoin="round"/>
<path d="M289.396 573.908C293.546 570.663 298.219 568.153 303.213 566.487C299.063 569.731 294.39 572.241 289.396 573.908V573.908Z" fill="#100C30"/>
<path d="M290.744 567.931C292.984 566.05 295.587 564.65 298.39 563.818C296.147 565.696 293.545 567.095 290.744 567.931V567.931Z" fill="#100C30"/>
<path d="M359.175 587.973C363.323 584.726 367.996 582.214 372.991 580.547C368.843 583.794 364.17 586.306 359.175 587.973V587.973Z" fill="#100C30"/>
<path d="M360.539 581.992C362.78 580.11 365.382 578.71 368.186 577.879C365.946 579.761 363.343 581.161 360.539 581.992V581.992Z" fill="#100C30"/>
<path d="M556.727 702.158H631.786" stroke="#100C30" stroke-width="13" stroke-linecap="round" stroke-linejoin="round"/>
<path d="M643.254 702.158H656.54" stroke="#100C30" stroke-width="13" stroke-linecap="round" stroke-linejoin="round"/>
<path d="M515.143 702.158H543.774" stroke="#100C30" stroke-width="13" stroke-linecap="round" stroke-linejoin="round"/>
<path d="M376.774 702.158H501.758" stroke="#100C30" stroke-width="13" stroke-linecap="round" stroke-linejoin="round"/>
<path d="M258.084 702.158H363.821" stroke="#100C30" stroke-width="13" stroke-linecap="round" stroke-linejoin="round"/>
<path d="M207.947 702.158H246.858" stroke="#100C30" stroke-width="13" stroke-linecap="round" stroke-linejoin="round"/>
<path d="M92.9061 702.158H196.289" stroke="#100C30" stroke-width="13" stroke-linecap="round" stroke-linejoin="round"/>
<path opacity="0.2" d="M256.331 673.821C256.331 673.821 247.648 638.522 246.858 616.993C246.068 595.463 243.974 565.851 250.291 554.403C260.718 535.495 261.215 537.938 261.215 537.938L251.314 543.902L244.648 556.267L241.932 571.573L241.31 593.785L242.109 614.398L246.042 643.573L250.792 671.585L252.882 673.838L256.331 673.821Z" fill="black"/>
<path d="M658.949 587.151C658.949 628.211 637.732 647.82 611.553 647.82C585.375 647.82 564.158 628.237 564.158 587.151C564.158 559.952 584.956 503.154 598.998 486.14C600.526 484.287 602.444 482.795 604.614 481.771C606.785 480.747 609.154 480.216 611.553 480.216C613.953 480.216 616.322 480.747 618.493 481.771C620.663 482.795 622.581 484.287 624.109 486.14C638.151 503.158 658.949 559.956 658.949 587.151Z" fill="#F5E7A8" stroke="#100C30" stroke-width="10" stroke-linecap="round" stroke-linejoin="round"/>
<path d="M611.553 557.106V647.82V701.245" stroke="#100C30" stroke-width="10" stroke-linecap="round" stroke-linejoin="round"/>
<path d="M611.553 591.956L635.331 568.143" stroke="#100C30" stroke-width="10" stroke-linecap="round" stroke-linejoin="round"/>
<path d="M611.553 626.261L635.331 602.444" stroke="#100C30" stroke-width="10" stroke-linecap="round" stroke-linejoin="round"/>
<path d="M587.78 583.375L611.553 607.192" stroke="#100C30" stroke-width="10" stroke-linecap="round" stroke-linejoin="round"/>
<path opacity="0.2" d="M600.764 521.828C602.864 521.828 604.567 520.122 604.567 518.018C604.567 515.914 602.864 514.208 600.764 514.208C598.663 514.208 596.96 515.914 596.96 518.018C596.96 520.122 598.663 521.828 600.764 521.828Z" fill="white"/>
<path opacity="0.2" d="M593.044 564.022C595.95 564.022 598.307 561.661 598.307 558.75C598.307 555.838 595.95 553.478 593.044 553.478C590.137 553.478 587.78 555.838 587.78 558.75C587.78 561.661 590.137 564.022 593.044 564.022Z" fill="white"/>
<path opacity="0.2" d="M623.444 539.517C625.474 539.517 627.119 537.869 627.119 535.836C627.119 533.804 625.474 532.156 623.444 532.156C621.415 532.156 619.77 533.804 619.77 535.836C619.77 537.869 621.415 539.517 623.444 539.517Z" fill="white"/>
<path opacity="0.2" d="M591.718 621.772C594.906 621.772 597.491 619.183 597.491 615.989C597.491 612.796 594.906 610.207 591.718 610.207C588.53 610.207 585.945 612.796 585.945 615.989C585.945 619.183 588.53 621.772 591.718 621.772Z" fill="white"/>
<path opacity="0.2" d="M658.949 587.151C658.949 628.211 637.732 647.816 611.554 647.816C610.192 647.816 608.849 647.764 607.525 647.66C631.817 645.727 650.888 626.083 650.888 587.151C650.888 559.952 630.089 503.154 616.048 486.135C613.857 483.466 610.87 481.569 607.525 480.721C610.517 479.952 613.666 480.054 616.603 481.013C619.54 481.972 622.144 483.748 624.109 486.135C638.155 503.158 658.949 559.956 658.949 587.151Z" fill="black"/>
<path d="M145.828 623.393C139.511 626.226 132.227 623.683 132.227 623.683C132.227 623.683 135.176 616.543 141.493 613.706C147.81 610.869 155.094 613.416 155.094 613.416C155.094 613.416 152.141 620.556 145.828 623.393Z" fill="#D6CAE5" stroke="#100C30" stroke-width="6" stroke-linecap="round" stroke-linejoin="round"/>
<path d="M193.72 660.215C188.889 662.378 183.315 660.436 183.315 660.436C183.315 660.436 185.573 654.973 190.404 652.802C195.236 650.631 200.81 652.582 200.81 652.582C200.81 652.582 198.552 658.044 193.72 660.215Z" fill="#F2E5A4" stroke="#100C30" stroke-width="6" stroke-linecap="round" stroke-linejoin="round"/>
<path d="M193.72 647.375C188.889 649.537 183.315 647.595 183.315 647.595C183.315 647.595 185.573 642.129 190.404 639.962C195.236 637.795 200.81 639.737 200.81 639.737C200.81 639.737 198.552 645.204 193.72 647.375Z" fill="#F2E5A4" stroke="#100C30" stroke-width="6" stroke-linecap="round" stroke-linejoin="round"/>
<path d="M172.905 647.375C177.736 649.537 183.315 647.595 183.315 647.595C183.315 647.595 181.052 642.129 176.221 639.962C171.389 637.795 165.815 639.737 165.815 639.737C165.815 639.737 168.069 645.204 172.905 647.375Z" fill="#F2E5A4" stroke="#100C30" stroke-width="6" stroke-linecap="round" stroke-linejoin="round"/>
<path d="M172.905 669.059C177.736 671.222 183.315 669.28 183.315 669.28C183.315 669.28 181.052 663.813 176.221 661.647C171.389 659.48 165.815 661.422 165.815 661.422C165.815 661.422 168.069 666.888 172.905 669.059Z" fill="#F2E5A4" stroke="#100C30" stroke-width="6" stroke-linecap="round" stroke-linejoin="round"/>
<path d="M172.905 691.116C177.736 693.279 183.315 691.341 183.315 691.341C183.315 691.341 181.052 685.875 176.221 683.708C171.389 681.541 165.815 683.483 165.815 683.483C165.815 683.483 168.069 688.95 172.905 691.116Z" fill="#F2E5A4" stroke="#100C30" stroke-width="6" stroke-linecap="round" stroke-linejoin="round"/>
<path d="M193.72 679.521C188.889 681.684 183.315 679.742 183.315 679.742C183.315 679.742 185.573 674.275 190.404 672.108C195.236 669.942 200.81 671.884 200.81 671.884C200.81 671.884 198.552 677.35 193.72 679.521Z" fill="#F2E5A4" stroke="#100C30" stroke-width="6" stroke-linecap="round" stroke-linejoin="round"/>
<path d="M145.828 648.508C139.511 651.345 132.227 648.802 132.227 648.802C132.227 648.802 135.176 641.662 141.493 638.824C147.81 635.987 155.094 638.535 155.094 638.535C155.094 638.535 152.141 645.675 145.828 648.508Z" fill="#D6CAE5" stroke="#100C30" stroke-width="6" stroke-linecap="round" stroke-linejoin="round"/>
<path d="M145.828 673.648C139.511 676.485 132.227 673.938 132.227 673.938C132.227 673.938 135.176 666.798 141.493 663.965C147.81 661.132 155.094 663.675 155.094 663.675C155.094 663.675 152.141 670.794 145.828 673.648Z" fill="#D6CAE5" stroke="#100C30" stroke-width="6" stroke-linecap="round" stroke-linejoin="round"/>
<path d="M118.627 637.289C124.939 640.122 132.227 637.579 132.227 637.579C132.227 637.579 129.274 630.438 122.962 627.601C116.649 624.764 109.361 627.312 109.361 627.312C109.361 627.312 112.31 634.452 118.627 637.289Z" fill="#D6CAE5" stroke="#100C30" stroke-width="6" stroke-linecap="round" stroke-linejoin="round"/>
<path d="M118.627 662.404C124.939 665.236 132.227 662.693 132.227 662.693C132.227 662.693 129.274 655.553 122.962 652.716C116.649 649.879 109.361 652.426 109.361 652.426C109.361 652.426 112.31 659.571 118.627 662.404Z" fill="#D6CAE5" stroke="#100C30" stroke-width="6" stroke-linecap="round" stroke-linejoin="round"/>
<path d="M118.627 687.522C124.939 690.36 132.227 687.817 132.227 687.817C132.227 687.817 129.274 680.676 122.962 677.839C116.649 675.002 109.348 677.541 109.348 677.541C109.348 677.541 112.31 684.69 118.627 687.522Z" fill="#D6CAE5" stroke="#100C30" stroke-width="6" stroke-linecap="round" stroke-linejoin="round"/>
<path d="M132.232 702.158V605.086C132.232 603.689 131.678 602.349 130.691 601.361C129.705 600.373 128.368 599.818 126.973 599.818V599.818C126.282 599.818 125.598 599.954 124.959 600.218C124.32 600.483 123.74 600.871 123.251 601.36C122.763 601.849 122.375 602.43 122.11 603.069C121.846 603.709 121.71 604.394 121.71 605.086V608.343" stroke="#100C30" stroke-width="6" stroke-linecap="round" stroke-linejoin="round"/>
<path d="M183.315 702.158V648.209" stroke="#100C30" stroke-width="6" stroke-linecap="round" stroke-linejoin="round"/>
<path d="M403.811 603.854H417.805" stroke="#100C30" stroke-width="7" stroke-linecap="round" stroke-linejoin="round"/>
<path d="M403.811 609.735H417.805" stroke="#100C30" stroke-width="7" stroke-linecap="round" stroke-linejoin="round"/>
<path opacity="0.2" d="M463.832 672.325C463.832 672.325 476.539 632.437 478.257 616.967C479.976 601.497 476.012 555.502 465.848 544.261L465.814 543.799C465.814 543.799 470.386 548.028 471.72 550.195C473.054 552.362 474.509 553.88 476.573 558.36C478.637 562.841 479.626 568.623 479.626 568.623L480.831 574.886L481.819 582.887L482.515 591.268L482.795 599.334C482.795 599.334 482.795 605.514 482.696 607.084C482.597 608.654 482.117 615.116 482.117 615.116L480.304 629.068C480.304 629.068 476.539 646.406 474.609 651.414C472.679 656.422 468.175 671.741 468.175 671.741L463.832 672.325Z" fill="white"/>
</svg>
