<svg width="221" height="225" viewBox="0 0 221 225" fill="none" xmlns="http://www.w3.org/2000/svg">
<path d="M50.8373 80.6488C50.8373 80.6488 78.8082 88.3484 99.3988 44.6258C117.685 5.7959 158.339 39.0967 166.622 59.5445C177.352 86.0323 156.521 119.061 177.62 130.805C198.719 142.549 167.786 188.405 135.098 172.641C94.435 153.032 96.7212 181.337 80.5421 187.846C68.9301 192.518 33.649 173.197 41.2367 145.209C47.6217 121.659 37.8562 118.624 31.7948 113.788C23.0528 106.814 25.5895 77.318 50.8373 80.6488Z" fill="#EEEDFF"/>
<path d="M115.073 35.2847C115.073 35.2847 120.107 67.6564 174.371 68.5499C222.562 69.3433 207.246 126.662 190.14 144.685C167.98 168.032 124.553 161.925 122.273 189.1C119.994 216.276 58.771 205.725 59.8137 164.752C61.1109 113.783 33.1924 129.281 19.0587 115.648C8.91485 105.863 12.4016 60.568 44.554 55.3824C71.6095 51.0188 70.2069 39.5559 72.358 31.07C75.4599 18.8314 106.825 7.74512 115.073 35.2847Z" fill="#CFCAFF"/>
<path d="M166.897 150.517C166.9 151.34 166.741 152.155 166.428 152.915C166.115 153.676 165.655 154.368 165.075 154.95C164.494 155.533 163.805 155.995 163.045 156.311C162.286 156.626 161.471 156.789 160.649 156.789L60.4241 156.993C59.6018 156.995 58.7872 156.835 58.0268 156.522C57.2664 156.209 56.5752 155.749 55.9927 155.169C55.4102 154.589 54.9478 153.899 54.6319 153.14C54.3161 152.381 54.153 151.567 54.1521 150.744L54.0112 80.2737L109.487 45.4455C109.736 45.2889 110.023 45.2051 110.316 45.2038C110.61 45.2024 110.898 45.2834 111.147 45.4377L165.457 79.2398L166.756 80.0464V81.1739L166.897 150.517Z" fill="#4A3AFF"/>
<path d="M61.5312 155.934V52.011H158.64V155.934H61.5312Z" fill="white" stroke="#4A3BFF"/>
<path d="M160.549 156.69L110.802 118.76C110.762 118.73 110.73 118.69 110.708 118.644C110.686 118.599 110.676 118.549 110.677 118.499C110.678 118.448 110.691 118.399 110.715 118.355C110.74 118.311 110.774 118.273 110.815 118.244L166.255 80.3522C166.303 80.3196 166.359 80.3006 166.417 80.2973C166.474 80.294 166.532 80.3065 166.583 80.3334C166.634 80.3604 166.677 80.4008 166.707 80.4503C166.737 80.4998 166.753 80.5565 166.753 80.6144L166.893 150.483C166.896 152.125 166.255 153.702 165.108 154.875C163.961 156.049 162.398 156.725 160.757 156.759C160.682 156.76 160.608 156.736 160.549 156.69V156.69Z" fill="#7D72FF"/>
<path d="M60.5082 156.889L110.103 118.762C110.143 118.731 110.175 118.691 110.196 118.646C110.218 118.6 110.228 118.55 110.227 118.5C110.225 118.449 110.212 118.4 110.188 118.356C110.163 118.312 110.129 118.274 110.087 118.246L54.4969 80.5755C54.449 80.5431 54.3931 80.5243 54.3353 80.5212C54.2776 80.5181 54.2201 80.5308 54.169 80.558C54.1179 80.5851 54.0752 80.6257 54.0454 80.6753C54.0156 80.7249 53.9999 80.7817 54 80.8395L54.14 150.709C54.1433 152.35 54.7905 153.924 55.9425 155.093C57.0944 156.262 58.6591 156.932 60.3 156.959C60.3753 156.96 60.4486 156.935 60.5082 156.889Z" fill="#7D72FF"/>
<path d="M160.641 156.76L60.4162 156.96C58.9 156.959 57.4355 156.409 56.293 155.413C55.1505 154.416 54.4071 153.039 54.2002 151.537C54.1662 151.281 54.1958 151.021 54.2865 150.779C54.3772 150.537 54.5262 150.321 54.7202 150.151L109.383 101.79C109.669 101.537 110.036 101.397 110.418 101.396C110.799 101.396 111.167 101.534 111.454 101.785L166.309 149.927C166.504 150.097 166.654 150.312 166.745 150.554C166.837 150.795 166.868 151.056 166.835 151.312C166.634 152.815 165.896 154.194 164.758 155.196C163.619 156.197 162.157 156.752 160.641 156.76V156.76Z" fill="#4A3BFF"/>
<path d="M85.9288 77.3503C87.8748 77.3503 89.4523 75.2469 89.4523 72.6523C89.4523 70.0577 87.8748 67.9543 85.9288 67.9543C83.9828 67.9543 82.4053 70.0577 82.4053 72.6523C82.4053 75.2469 83.9828 77.3503 85.9288 77.3503Z" fill="#4A3AFF"/>
<path d="M135.259 77.3503C137.205 77.3503 138.782 75.2469 138.782 72.6523C138.782 70.0577 137.205 67.9543 135.259 67.9543C133.313 67.9543 131.735 70.0577 131.735 72.6523C131.735 75.2469 133.313 77.3503 135.259 77.3503Z" fill="#4A3AFF"/>
<path d="M123.906 92.9277C123.787 92.9278 123.67 92.8976 123.566 92.84C123.462 92.7825 123.374 92.6993 123.311 92.5985C123.274 92.5401 119.442 86.6205 110.536 85.8785C106.829 85.5698 103.311 86.602 100.083 88.9477C98.6441 89.9812 97.3656 91.222 96.2894 92.6297C96.1824 92.7804 96.02 92.8827 95.8379 92.9141C95.6557 92.9456 95.4685 92.9037 95.3171 92.7976C95.1657 92.6915 95.0624 92.5298 95.0298 92.3478C94.9972 92.1658 95.0379 91.9784 95.143 91.8263C95.2016 91.7423 96.6099 89.7516 99.2185 87.8454C102.686 85.3114 106.64 84.1494 110.652 84.483C120.287 85.2859 124.331 91.5888 124.498 91.8567C124.564 91.9626 124.601 92.0843 124.604 92.2091C124.607 92.334 124.577 92.4575 124.517 92.5668C124.456 92.6761 124.368 92.7672 124.26 92.8307C124.152 92.8942 124.03 92.9277 123.905 92.9278L123.906 92.9277Z" fill="#4A3AFF"/>
</svg>
