<svg width="35" height="35" viewBox="0 0 35 35" fill="none" xmlns="http://www.w3.org/2000/svg">
<rect width="35" height="35" rx="17.5" fill="url(#paint0_linear_366_215)"/>
<path d="M24.3056 18.4722V23.3333C24.3056 23.8681 23.8681 24.3056 23.3333 24.3056H11.6667C11.1319 24.3056 10.6944 23.8681 10.6944 23.3333V18.4722C10.6944 17.9375 10.2569 17.5 9.72222 17.5C9.1875 17.5 8.75 17.9375 8.75 18.4722V24.3056C8.75 25.375 9.625 26.25 10.6944 26.25H24.3056C25.375 26.25 26.25 25.375 26.25 24.3056V18.4722C26.25 17.9375 25.8125 17.5 25.2778 17.5C24.7431 17.5 24.3056 17.9375 24.3056 18.4722ZM18.4722 18.1514L20.3 16.3236C20.39 16.2336 20.4969 16.1622 20.6145 16.1135C20.7321 16.0648 20.8581 16.0397 20.9854 16.0397C21.1127 16.0397 21.2388 16.0648 21.3564 16.1135C21.474 16.1622 21.5808 16.2336 21.6708 16.3236C21.7608 16.4136 21.8322 16.5205 21.881 16.6381C21.9297 16.7557 21.9547 16.8817 21.9547 17.009C21.9547 17.1363 21.9297 17.2624 21.881 17.38C21.8322 17.4976 21.7608 17.6044 21.6708 17.6944L18.1806 21.1847C18.0906 21.2749 17.9838 21.3464 17.8662 21.3951C17.7485 21.4439 17.6225 21.469 17.4951 21.469C17.3678 21.469 17.2417 21.4439 17.1241 21.3951C17.0065 21.3464 16.8997 21.2749 16.8097 21.1847L13.3194 17.6944C13.1377 17.5127 13.0355 17.2661 13.0355 17.009C13.0355 16.7519 13.1377 16.5054 13.3194 16.3236C13.5012 16.1418 13.7478 16.0397 14.0049 16.0397C14.2619 16.0397 14.5085 16.1418 14.6903 16.3236L16.5278 18.1514V9.72222C16.5278 9.1875 16.9653 8.75 17.5 8.75C18.0347 8.75 18.4722 9.1875 18.4722 9.72222V18.1514Z" fill="white"/>
<defs>
<linearGradient id="paint0_linear_366_215" x1="0" y1="0" x2="36.5724" y2="1.72837" gradientUnits="userSpaceOnUse">
<stop stop-color="#0499DD"/>
<stop offset="1" stop-color="#17C1BC"/>
</linearGradient>
</defs>
</svg>
