<svg width="33" height="33" viewBox="0 0 33 33" fill="none" xmlns="http://www.w3.org/2000/svg">
<path d="M24.375 28.875H10.625C9.16631 28.875 7.76736 28.2955 6.73591 27.2641C5.70446 26.2326 5.125 24.8337 5.125 23.375V14.7235C5.12498 13.7778 5.36881 12.8481 5.83294 12.0241C6.29708 11.2001 6.96583 10.5097 7.77463 10.0196L14.6496 5.85337C15.5092 5.33251 16.495 5.05713 17.5 5.05713C18.505 5.05713 19.4908 5.33251 20.3504 5.85337L27.2254 10.0196C28.034 10.5096 28.7026 11.1998 29.1667 12.0235C29.6308 12.8472 29.8748 13.7766 29.875 14.7221V23.375C29.875 24.8337 29.2955 26.2326 28.2641 27.2641C27.2326 28.2955 25.8337 28.875 24.375 28.875ZM13.375 23.375H21.625H13.375Z" fill="white"/>
<path d="M13.375 23.375H21.625M24.375 28.875H10.625C9.16631 28.875 7.76736 28.2955 6.73591 27.2641C5.70446 26.2326 5.125 24.8337 5.125 23.375V14.7235C5.12498 13.7778 5.36881 12.8481 5.83294 12.0241C6.29708 11.2001 6.96583 10.5097 7.77463 10.0196L14.6496 5.85337C15.5092 5.33251 16.495 5.05713 17.5 5.05713C18.505 5.05713 19.4908 5.33251 20.3504 5.85337L27.2254 10.0196C28.034 10.5096 28.7026 11.1998 29.1667 12.0235C29.6308 12.8472 29.8748 13.7766 29.875 14.7221V23.375C29.875 24.8337 29.2955 26.2326 28.2641 27.2641C27.2326 28.2955 25.8337 28.875 24.375 28.875Z" stroke="#0499DD" stroke-width="2" stroke-linecap="round" stroke-linejoin="round"/>
</svg>
