<svg width="57" height="37" viewBox="0 0 57 37" fill="none" xmlns="http://www.w3.org/2000/svg">
<path d="M43.9453 4.86594C41.6143 4.86594 39.3788 5.94497 37.7305 7.86564C36.0822 9.78632 35.1562 12.3913 35.1562 15.1076C35.1562 15.6508 34.9711 16.1718 34.6414 16.5559C34.3117 16.9401 33.8646 17.1559 33.3984 17.1559C32.9322 17.1559 32.4851 16.9401 32.1555 16.5559C31.8258 16.1718 31.6406 15.6508 31.6406 15.1076C31.6406 12.2717 32.3623 9.49956 33.7143 7.14165C35.0664 4.78373 36.9881 2.94596 39.2365 1.86073C41.4849 0.7755 43.959 0.491554 46.3458 1.0448C48.7327 1.59804 50.9252 2.96363 52.646 4.96887C54.3669 6.97412 55.5388 9.52895 56.0136 12.3103C56.4883 15.0917 56.2447 17.9746 55.3134 20.5946C54.382 23.2146 52.8049 25.4539 50.7814 27.0294C48.7579 28.6049 46.3789 29.4458 43.9453 29.4458H1.75781C1.29161 29.4458 0.844505 29.23 0.514851 28.8459C0.185198 28.4618 0 27.9408 0 27.3975C0 26.8543 0.185198 26.3333 0.514851 25.9491C0.844505 25.565 1.29161 25.3492 1.75781 25.3492H43.9453C46.2763 25.3492 48.5118 24.2702 50.1601 22.3495C51.8084 20.4288 52.7344 17.8238 52.7344 15.1076C52.7344 12.3913 51.8084 9.78632 50.1601 7.86564C48.5118 5.94497 46.2763 4.86594 43.9453 4.86594ZM19.3359 8.96259C18.4035 8.96259 17.5093 9.3942 16.85 10.1625C16.1907 10.9307 15.8203 11.9727 15.8203 13.0592C15.8203 13.6025 15.6351 14.1235 15.3055 14.5076C14.9758 14.8918 14.5287 15.1076 14.0625 15.1076C13.5963 15.1076 13.1492 14.8918 12.8195 14.5076C12.4899 14.1235 12.3047 13.6025 12.3047 13.0592C12.3047 11.4388 12.7171 9.85467 13.4897 8.50729C14.2623 7.1599 15.3604 6.10975 16.6452 5.48962C17.93 4.86949 19.3437 4.70723 20.7077 5.02337C22.0716 5.33951 23.3244 6.11985 24.3078 7.2657C25.2911 8.41155 25.9608 9.87146 26.2321 11.4608C26.5034 13.0501 26.3641 14.6975 25.832 16.1947C25.2998 17.6918 24.3986 18.9714 23.2423 19.8717C22.086 20.772 20.7266 21.2525 19.3359 21.2525H1.75781C1.29161 21.2525 0.844505 21.0367 0.514851 20.6526C0.185198 20.2685 0 19.7475 0 19.2042C0 18.661 0.185198 18.14 0.514851 17.7558C0.844505 17.3717 1.29161 17.1559 1.75781 17.1559H19.3359C20.2683 17.1559 21.1625 16.7243 21.8219 15.956C22.4812 15.1877 22.8516 14.1457 22.8516 13.0592C22.8516 11.9727 22.4812 10.9307 21.8219 10.1625C21.1625 9.3942 20.2683 8.96259 19.3359 8.96259Z" fill="#0499DD"/>
<path d="M0.514851 33.4869C0.185198 33.871 0 34.392 0 34.9353C0 35.4785 0.185198 35.9995 0.514851 36.3837C0.844505 36.7678 1.29161 36.9836 1.75781 36.9836H35.0134C36.1446 36.9836 37.0617 36.0665 37.0617 34.9353C37.0617 33.804 36.1446 32.887 35.0134 32.887H1.75781C1.29161 32.887 0.844505 33.1028 0.514851 33.4869Z" fill="#0499DD"/>
<path d="M55.832 31.9419C56.0852 31.2294 56.2495 30.4828 56.3229 29.7247C56.4451 28.4619 55.0957 27.7453 53.9488 28.2876C53.2788 28.6044 52.8858 29.2903 52.6972 30.007C52.5303 30.6415 52.232 31.2253 51.8219 31.7032C51.1625 32.4715 50.2683 32.9031 49.3359 32.9031H42.7578C42.2916 32.9031 41.8445 33.1189 41.5149 33.503C41.1852 33.8872 41 34.4082 41 34.9514C41 35.4947 41.1852 36.0157 41.5149 36.3998C41.8445 36.7839 42.2916 36.9997 42.7578 36.9997H49.3359C50.7266 36.9997 52.086 36.5192 53.2423 35.6189C54.3986 34.7186 55.2998 33.439 55.832 31.9419Z" fill="#0499DD"/>
</svg>
