<svg width="33" height="33" viewBox="0 0 33 33" fill="none" xmlns="http://www.w3.org/2000/svg">
<path d="M11.9794 5.85286C11.9794 5.62667 12.0693 5.40974 12.2292 5.2498C12.3892 5.08985 12.6061 5 12.8323 5H20.2232C20.4493 5 20.6663 5.08985 20.8262 5.2498C20.9862 5.40974 21.076 5.62667 21.076 5.85286C21.076 6.07905 20.9862 6.29598 20.8262 6.45592C20.6663 6.61586 20.4493 6.70571 20.2232 6.70571H19.94V8.41143H21.6457C22.5505 8.41143 23.4182 8.77085 24.058 9.41061C24.6977 10.0504 25.0571 10.9181 25.0571 11.8229V23.7629C25.0571 24.6676 24.6977 25.5353 24.058 26.1751C23.4182 26.8149 22.5505 27.1743 21.6457 27.1743V28.0271C21.6457 28.2533 21.5559 28.4703 21.3959 28.6302C21.236 28.7901 21.0191 28.88 20.7929 28.88C20.5667 28.88 20.3497 28.7901 20.1898 28.6302C20.0299 28.4703 19.94 28.2533 19.94 28.0271V27.1743H13.1171V28.0271C13.1171 28.2533 13.0273 28.4703 12.8673 28.6302C12.7074 28.7901 12.4905 28.88 12.2643 28.88C12.0381 28.88 11.8212 28.7901 11.6612 28.6302C11.5013 28.4703 11.4114 28.2533 11.4114 28.0271V27.1743C10.5067 27.1743 9.63895 26.8149 8.99918 26.1751C8.35942 25.5353 8 24.6676 8 23.7629V11.8229C8 10.9181 8.35942 10.0504 8.99918 9.41061C9.63895 8.77085 10.5067 8.41143 11.4114 8.41143H13.1171V6.70571H12.8323C12.6061 6.70571 12.3892 6.61586 12.2292 6.45592C12.0693 6.29598 11.9794 6.07905 11.9794 5.85286ZM14.8229 6.70571V8.41143H18.2343V6.70571H14.8229ZM11.4114 10.1171C10.959 10.1171 10.5252 10.2969 10.2053 10.6167C9.88542 10.9366 9.70571 11.3705 9.70571 11.8229V23.7629C9.70571 24.2152 9.88542 24.6491 10.2053 24.969C10.5252 25.2889 10.959 25.4686 11.4114 25.4686H21.6457C22.0981 25.4686 22.532 25.2889 22.8518 24.969C23.1717 24.6491 23.3514 24.2152 23.3514 23.7629V11.8229C23.3514 11.3705 23.1717 10.9366 22.8518 10.6167C22.532 10.2969 22.0981 10.1171 21.6457 10.1171H11.4114ZM11.4114 14.3814C11.4114 14.1552 11.5013 13.9383 11.6612 13.7784C11.8212 13.6184 12.0381 13.5286 12.2643 13.5286H20.7929C21.0191 13.5286 21.236 13.6184 21.3959 13.7784C21.5559 13.9383 21.6457 14.1552 21.6457 14.3814C21.6457 14.6076 21.5559 14.8245 21.3959 14.9845C21.236 15.1444 21.0191 15.2343 20.7929 15.2343H12.2643C12.0381 15.2343 11.8212 15.1444 11.6612 14.9845C11.5013 14.8245 11.4114 14.6076 11.4114 14.3814Z" fill="#7D7D7D"/>
</svg>
