<svg width="41" height="40" viewBox="0 0 41 40" fill="none" xmlns="http://www.w3.org/2000/svg">
<ellipse opacity="0.5" cx="20.4959" cy="19.8266" rx="19.8142" ry="19.4774" fill="white"/>
<path d="M29.2537 12.6298C28.7477 12.1321 28.1469 11.7374 27.4856 11.468C26.8244 11.1987 26.1156 11.0601 25.3998 11.0601C24.6841 11.0601 23.9753 11.1987 23.314 11.468C22.6528 11.7374 22.052 12.1321 21.546 12.6298L20.4958 13.6621L19.4457 12.6298C18.4236 11.625 17.0373 11.0606 15.5918 11.0606C14.1463 11.0606 12.76 11.625 11.7379 12.6298C10.7158 13.6345 10.1416 14.9972 10.1416 16.4181C10.1416 17.839 10.7158 19.2018 11.7379 20.2065L12.7881 21.2388L20.4958 28.8155L28.2036 21.2388L29.2537 20.2065C29.76 19.7091 30.1616 19.1185 30.4356 18.4685C30.7095 17.8185 30.8506 17.1217 30.8506 16.4181C30.8506 15.7145 30.7095 15.0178 30.4356 14.3678C30.1616 13.7178 29.76 13.1272 29.2537 12.6298V12.6298Z" stroke="white" stroke-width="2" stroke-linecap="round" stroke-linejoin="round"/>
</svg>
