<svg width="25" height="25" viewBox="0 0 25 25" fill="none" xmlns="http://www.w3.org/2000/svg">
<ellipse opacity="0.5" cx="12.6447" cy="12.4506" rx="11.9948" ry="11.7909" fill="white"/>
<g clip-path="url(#clip0_226_2727)">
<path d="M17.9462 8.0938C17.6399 7.79254 17.2762 7.55357 16.8759 7.39052C16.4756 7.22747 16.0465 7.14355 15.6132 7.14355C15.1799 7.14355 14.7509 7.22747 14.3506 7.39052C13.9503 7.55357 13.5866 7.79254 13.2802 8.0938L12.6445 8.71872L12.0088 8.0938C11.3901 7.48557 10.5509 7.14387 9.67581 7.14387C8.80077 7.14387 7.96157 7.48557 7.34282 8.0938C6.72407 8.70203 6.37646 9.52696 6.37646 10.3871C6.37646 11.2473 6.72407 12.0722 7.34282 12.6805L7.97854 13.3054L12.6445 17.892L17.3105 13.3054L17.9462 12.6805C18.2527 12.3793 18.4958 12.0218 18.6617 11.6283C18.8275 11.2348 18.9129 10.8131 18.9129 10.3871C18.9129 9.96119 18.8275 9.53943 18.6617 9.14593C18.4958 8.75243 18.2527 8.39491 17.9462 8.0938V8.0938Z" stroke="#E30000" stroke-linecap="round" stroke-linejoin="round"/>
</g>
<defs>
<clipPath id="clip0_226_2727">
<rect width="14.3938" height="14.1491" fill="white" transform="translate(5.44775 5.37598)"/>
</clipPath>
</defs>
</svg>