<svg width="25" height="25" viewBox="0 0 25 25" fill="none" xmlns="http://www.w3.org/2000/svg">
<ellipse opacity="0.5" cx="12.6178" cy="12.4506" rx="11.9948" ry="11.7909" fill="white"/>
<g clip-path="url(#clip0_226_2744)">
<path d="M17.9194 8.0938C17.613 7.79254 17.2493 7.55357 16.849 7.39052C16.4487 7.22747 16.0197 7.14355 15.5864 7.14355C15.1531 7.14355 14.724 7.22747 14.3237 7.39052C13.9234 7.55357 13.5597 7.79254 13.2534 8.0938L12.6177 8.71872L11.9819 8.0938C11.3632 7.48557 10.524 7.14387 9.64895 7.14387C8.77391 7.14387 7.93471 7.48557 7.31597 8.0938C6.69722 8.70203 6.34961 9.52696 6.34961 10.3871C6.34961 11.2473 6.69722 12.0722 7.31597 12.6805L7.95169 13.3054L12.6177 17.892L17.2836 13.3054L17.9194 12.6805C18.2258 12.3793 18.4689 12.0218 18.6348 11.6283C18.8007 11.2348 18.886 10.8131 18.886 10.3871C18.886 9.96119 18.8007 9.53943 18.6348 9.14593C18.4689 8.75243 18.2258 8.39491 17.9194 8.0938Z" fill="#E30000" stroke="white" stroke-linecap="round" stroke-linejoin="round"/>
</g>
<defs>
<clipPath id="clip0_226_2744">
<rect width="14.3938" height="14.1491" fill="white" transform="translate(5.4209 5.37598)"/>
</clipPath>
</defs>
</svg>
