<svg width="57" height="31" viewBox="0 0 57 31" fill="none" xmlns="http://www.w3.org/2000/svg">
<path d="M43.9453 3.44398C41.6143 3.44398 39.3788 4.3511 37.7305 5.96578C36.0822 7.58046 35.1562 9.77043 35.1562 12.0539C35.1562 12.5106 34.9711 12.9486 34.6414 13.2716C34.3117 13.5945 33.8646 13.7759 33.3984 13.7759C32.9322 13.7759 32.4851 13.5945 32.1555 13.2716C31.8258 12.9486 31.6406 12.5106 31.6406 12.0539C31.6406 9.66989 32.3623 7.33939 33.7143 5.35713C35.0664 3.37487 36.9881 1.82989 39.2365 0.917556C41.4849 0.00522276 43.959 -0.233485 46.3458 0.231618C48.7327 0.696722 50.9252 1.84475 52.646 3.53052C54.3669 5.21629 55.5388 7.36409 56.0136 9.70233C56.4883 12.0406 56.2447 14.4642 55.3134 16.6668C54.382 18.8693 52.8049 20.7519 50.7814 22.0764C48.7579 23.4009 46.3789 24.1079 43.9453 24.1079H1.75781C1.29161 24.1079 0.844505 23.9264 0.514851 23.6035C0.185198 23.2806 0 22.8426 0 22.3859C0 21.9292 0.185198 21.4912 0.514851 21.1682C0.844505 20.8453 1.29161 20.6639 1.75781 20.6639H43.9453C46.2763 20.6639 48.5118 19.7568 50.1601 18.1421C51.8084 16.5274 52.7344 14.3374 52.7344 12.0539C52.7344 9.77043 51.8084 7.58046 50.1601 5.96578C48.5118 4.3511 46.2763 3.44398 43.9453 3.44398ZM19.3359 6.88796C18.4035 6.88796 17.5093 7.25081 16.85 7.89668C16.1907 8.54255 15.8203 9.41854 15.8203 10.3319C15.8203 10.7886 15.6351 11.2266 15.3055 11.5496C14.9758 11.8725 14.5287 12.0539 14.0625 12.0539C13.5963 12.0539 13.1492 11.8725 12.8195 11.5496C12.4899 11.2266 12.3047 10.7886 12.3047 10.3319C12.3047 8.96963 12.7171 7.63792 13.4897 6.5052C14.2623 5.37248 15.3604 4.48963 16.6452 3.9683C17.93 3.44697 19.3437 3.31056 20.7077 3.57633C22.0716 3.84211 23.3244 4.49812 24.3078 5.46142C25.2911 6.42472 25.9608 7.65203 26.2321 8.98817C26.5034 10.3243 26.3641 11.7092 25.832 12.9678C25.2998 14.2265 24.3986 15.3022 23.2423 16.0591C22.086 16.8159 20.7266 17.2199 19.3359 17.2199H1.75781C1.29161 17.2199 0.844505 17.0385 0.514851 16.7155C0.185198 16.3926 0 15.9546 0 15.4979C0 15.0412 0.185198 14.6032 0.514851 14.2803C0.844505 13.9573 1.29161 13.7759 1.75781 13.7759H19.3359C20.2683 13.7759 21.1625 13.4131 21.8219 12.7672C22.4812 12.1213 22.8516 11.2453 22.8516 10.3319C22.8516 9.41854 22.4812 8.54255 21.8219 7.89668C21.1625 7.25081 20.2683 6.88796 19.3359 6.88796Z" fill="white"/>
<path d="M0.514851 27.5051C0.185198 27.828 0 28.266 0 28.7227C0 29.1794 0.185198 29.6174 0.514851 29.9404C0.844505 30.2633 1.29161 30.4447 1.75781 30.4447H35.3397C36.2907 30.4447 37.0617 29.6737 37.0617 28.7227C37.0617 27.7717 36.2907 27.0007 35.3397 27.0007H1.75781C1.29161 27.0007 0.844505 27.1822 0.514851 27.5051Z" fill="white"/>
<path d="M55.832 26.2065C56.0596 25.668 56.2154 25.1064 56.2979 24.5354C56.4707 23.3385 55.1991 22.6374 54.0753 23.0841C53.3365 23.3778 52.8998 24.1188 52.5982 24.8544C52.423 25.2815 52.1605 25.6741 51.8219 26.0058C51.1625 26.6517 50.2683 27.0146 49.3359 27.0146H42.7578C42.2916 27.0146 41.8445 27.196 41.5149 27.5189C41.1852 27.8419 41 28.2799 41 28.7366C41 29.1933 41.1852 29.6312 41.5149 29.9542C41.8445 30.2771 42.2916 30.4585 42.7578 30.4585H49.3359C50.7266 30.4585 52.086 30.0546 53.2423 29.2977C54.3986 28.5409 55.2998 27.4651 55.832 26.2065Z" fill="white"/>
</svg>
